<svg xmlns="http://www.w3.org/2000/svg" width="680" height="520" viewBox="0 0 680 520">
<rect width="680" height="520" fill="#0d1117" rx="12"/>
<defs>
<radialGradient id="glow" cx="50%" cy="50%" r="50%"><stop offset="0%" stop-color="#7F77DD" stop-opacity="0.18"/><stop offset="100%" stop-color="#7F77DD" stop-opacity="0"/></radialGradient>
</defs>

<circle cx="340" cy="255" r="200" fill="url(#glow)"/>

<!-- Primary constellation lines (Lumina to each primary node) -->
<line x1="340" y1="255" x2="340" y2="85" stroke="#534AB7" stroke-width="0.5" opacity="0.4"/>
<line x1="340" y1="255" x2="175" y2="140" stroke="#534AB7" stroke-width="0.5" opacity="0.4"/>
<line x1="340" y1="255" x2="505" y2="140" stroke="#534AB7" stroke-width="0.5" opacity="0.4"/>
<line x1="340" y1="255" x2="120" y2="215" stroke="#534AB7" stroke-width="0.5" opacity="0.4"/>
<line x1="340" y1="255" x2="560" y2="215" stroke="#534AB7" stroke-width="0.5" opacity="0.4"/>
<line x1="340" y1="255" x2="120" y2="305" stroke="#534AB7" stroke-width="0.5" opacity="0.4"/>
<line x1="340" y1="255" x2="560" y2="305" stroke="#534AB7" stroke-width="0.5" opacity="0.4"/>
<line x1="340" y1="255" x2="175" y2="380" stroke="#534AB7" stroke-width="0.5" opacity="0.4"/>
<line x1="340" y1="255" x2="505" y2="380" stroke="#534AB7" stroke-width="0.5" opacity="0.4"/>
<line x1="340" y1="255" x2="340" y2="425" stroke="#534AB7" stroke-width="0.5" opacity="0.4"/>

<!-- Outer ring connections (adjacent primary nodes) -->
<line x1="175" y1="140" x2="120" y2="215" stroke="#1D9E75" stroke-width="0.3" opacity="0.25"/>
<line x1="505" y1="140" x2="560" y2="215" stroke="#1D9E75" stroke-width="0.3" opacity="0.25"/>
<line x1="120" y1="215" x2="120" y2="305" stroke="#1D9E75" stroke-width="0.3" opacity="0.25"/>
<line x1="560" y1="215" x2="560" y2="305" stroke="#1D9E75" stroke-width="0.3" opacity="0.25"/>
<line x1="120" y1="305" x2="175" y2="380" stroke="#1D9E75" stroke-width="0.3" opacity="0.25"/>
<line x1="560" y1="305" x2="505" y2="380" stroke="#1D9E75" stroke-width="0.3" opacity="0.25"/>
<line x1="175" y1="380" x2="340" y2="425" stroke="#1D9E75" stroke-width="0.3" opacity="0.25"/>
<line x1="505" y1="380" x2="340" y2="425" stroke="#1D9E75" stroke-width="0.3" opacity="0.25"/>
<line x1="340" y1="85" x2="175" y2="140" stroke="#1D9E75" stroke-width="0.3" opacity="0.25"/>
<line x1="340" y1="85" x2="505" y2="140" stroke="#1D9E75" stroke-width="0.3" opacity="0.25"/>

<!-- Lumina center node -->
<circle cx="340" cy="255" r="22" fill="#7F77DD" opacity="0.9"/>
<circle cx="340" cy="255" r="30" fill="none" stroke="#7F77DD" stroke-width="0.5" opacity="0.4"/>
<text x="340" y="255" text-anchor="middle" dominant-baseline="central" fill="#EEEDFE" font-family="system-ui,-apple-system,sans-serif" font-size="13" font-weight="600" letter-spacing="1">LUMINA</text>

<!-- Primary nodes -->
<circle cx="340" cy="85" r="8" fill="#1D9E75" opacity="0.85"/>
<text x="340" y="68" text-anchor="middle" fill="#5DCAA5" font-family="system-ui,sans-serif" font-size="11" font-weight="500">Terminus</text>

<circle cx="175" cy="140" r="7" fill="#D85A30" opacity="0.85"/>
<text x="132" y="132" text-anchor="middle" fill="#F0997B" font-family="system-ui,sans-serif" font-size="11" font-weight="500">Vigil</text>

<circle cx="505" cy="140" r="7" fill="#D85A30" opacity="0.85"/>
<text x="550" y="132" text-anchor="middle" fill="#F0997B" font-family="system-ui,sans-serif" font-size="11" font-weight="500">Sentinel</text>

<circle cx="120" cy="215" r="7" fill="#378ADD" opacity="0.85"/>
<text x="70" y="215" text-anchor="middle" fill="#85B7EB" font-family="system-ui,sans-serif" font-size="11" font-weight="500">Engram</text>

<circle cx="560" cy="215" r="7" fill="#378ADD" opacity="0.85"/>
<text x="614" y="215" text-anchor="middle" fill="#85B7EB" font-family="system-ui,sans-serif" font-size="11" font-weight="500">Spectra</text>

<circle cx="120" cy="305" r="7" fill="#639922" opacity="0.85"/>
<text x="70" y="305" text-anchor="middle" fill="#97C459" font-family="system-ui,sans-serif" font-size="11" font-weight="500">Vector</text>

<circle cx="560" cy="305" r="7" fill="#639922" opacity="0.85"/>
<text x="620" y="305" text-anchor="middle" fill="#97C459" font-family="system-ui,sans-serif" font-size="11" font-weight="500">Mr. Wizard</text>

<circle cx="175" cy="380" r="7" fill="#BA7517" opacity="0.85"/>
<text x="128" y="395" text-anchor="middle" fill="#FAC775" font-family="system-ui,sans-serif" font-size="11" font-weight="500">Myelin</text>

<circle cx="505" cy="380" r="7" fill="#BA7517" opacity="0.85"/>
<text x="548" y="395" text-anchor="middle" fill="#FAC775" font-family="system-ui,sans-serif" font-size="11" font-weight="500">Axon</text>

<circle cx="340" cy="425" r="7" fill="#D4537E" opacity="0.85"/>
<text x="340" y="445" text-anchor="middle" fill="#ED93B1" font-family="system-ui,sans-serif" font-size="11" font-weight="500">Soma</text>

<!-- Secondary nodes (smaller, dimmer) -->
<circle cx="235" cy="100" r="4" fill="#5DCAA5" opacity="0.5"/>
<text x="235" y="88" text-anchor="middle" fill="#5DCAA5" font-family="system-ui,sans-serif" font-size="9" opacity="0.7">Seer</text>

<circle cx="445" cy="100" r="4" fill="#5DCAA5" opacity="0.5"/>
<text x="445" y="88" text-anchor="middle" fill="#5DCAA5" font-family="system-ui,sans-serif" font-size="9" opacity="0.7">Cortex</text>

<circle cx="100" cy="260" r="4" fill="#97C459" opacity="0.5"/>
<text x="56" y="260" text-anchor="middle" fill="#97C459" font-family="system-ui,sans-serif" font-size="9" opacity="0.7">Nexus</text>

<circle cx="580" cy="260" r="4" fill="#97C459" opacity="0.5"/>
<text x="626" y="260" text-anchor="middle" fill="#97C459" font-family="system-ui,sans-serif" font-size="9" opacity="0.7">Plexus</text>

<circle cx="145" cy="345" r="4" fill="#ED93B1" opacity="0.5"/>
<text x="105" y="345" text-anchor="middle" fill="#ED93B1" font-family="system-ui,sans-serif" font-size="9" opacity="0.7">Dura</text>

<circle cx="535" cy="345" r="4" fill="#ED93B1" opacity="0.5"/>
<text x="578" y="345" text-anchor="middle" fill="#ED93B1" font-family="system-ui,sans-serif" font-size="9" opacity="0.7">Synapse</text>

<circle cx="255" cy="415" r="4" fill="#F0997B" opacity="0.5"/>
<text x="222" y="430" text-anchor="middle" fill="#F0997B" font-family="system-ui,sans-serif" font-size="9" opacity="0.7">Obsidian Circle</text>

<circle cx="425" cy="415" r="4" fill="#F0997B" opacity="0.5"/>
<text x="460" y="430" text-anchor="middle" fill="#F0997B" font-family="system-ui,sans-serif" font-size="9" opacity="0.7">Refractor</text>

<!-- Footer text -->
<text x="340" y="485" text-anchor="middle" fill="#8b949e" font-family="system-ui,sans-serif" font-size="10" letter-spacing="1.5" font-weight="400">LUMINA CONSTELLATION  ·  25 MODULES  ·  LOCAL INFERENCE  ·  $0/DAY</text>
</svg>
